<svg width="69" height="61" viewBox="0 0 69 61" fill="none" xmlns="http://www.w3.org/2000/svg">
<g clip-path="url(#clip0)">
<path d="M32.8619 32.0854C34.543 31.1869 36.6435 31.8234 37.5421 33.5045C38.1336 34.6127 39.1258 36.0804 40.6684 37.3571V14.6604C40.6721 6.86892 47.0446 0.49646 54.8361 0.49646C62.6275 0.49646 69 6.86892 69 14.6604V45.9012C69 53.7226 62.6575 60.0651 54.8361 60.0651C47.0146 60.0651 40.6721 53.7226 40.6721 45.9012V45.4145C35.3742 43.0781 32.5774 38.8922 31.4429 36.7693C30.5443 35.0845 31.1808 32.984 32.8619 32.0854ZM53.7465 17.4086C54.5702 17.4086 55.2404 16.7384 55.2404 15.9147C55.2404 15.091 54.5702 14.4208 53.7465 14.4208C52.9228 14.4208 52.2526 15.091 52.2526 15.9147C52.2489 16.7384 52.9191 17.4086 53.7465 17.4086ZM49.7591 23.8859C51.1931 23.8859 52.3575 22.7214 52.3575 21.2875H47.1644C47.1644 22.7214 48.3251 23.8859 49.7591 23.8859ZM45.7753 17.4086C46.599 17.4086 47.2692 16.7384 47.2692 15.9147C47.2692 15.091 46.599 14.4208 45.7753 14.4208C44.9516 14.4208 44.2814 15.091 44.2814 15.9147C44.2814 16.7384 44.9516 17.4086 45.7753 17.4086Z" fill="black"/>
<path d="M34.0975 34.3955C34.2959 34.2907 34.5205 34.2682 34.7377 34.3319C34.9511 34.3955 35.1271 34.5415 35.2319 34.74C36.7558 37.5855 40.4512 42.4154 48.1229 42.7748C53.1961 43.0144 57.8538 40.8915 60.0403 38.8173C60.1976 38.6675 60.3998 38.5852 60.6169 38.5852C60.6244 38.5852 60.6319 38.5852 60.6394 38.5852C60.864 38.5926 61.07 38.6825 61.2272 38.8472C61.3807 39.012 61.4631 39.2217 61.4594 39.4463C61.4556 39.6709 61.362 39.8769 61.1973 40.0341C58.8272 42.2843 53.6192 44.703 48.048 44.4522C39.2344 44.0403 35.1159 38.0797 33.7567 35.5337C33.5358 35.1256 33.6893 34.6164 34.0975 34.3955Z" fill="#0BFF4F"/>
<path d="M14.1639 0.49646C21.9554 0.49646 28.3279 6.86892 28.3279 14.6604V37.3609C29.8742 36.0841 30.8626 34.6127 31.4542 33.5082C32.3528 31.8271 34.4532 31.1906 36.1381 32.0892C37.8192 32.9878 38.4557 35.0882 37.5571 36.7693C36.4226 38.8922 33.6258 43.0781 28.3279 45.4145V45.9012C28.3279 53.7226 21.9854 60.0651 14.1639 60.0651C6.34251 60.0651 1.14441e-05 53.7226 1.14441e-05 45.9012V14.6604C1.14441e-05 6.86892 6.37621 0.49646 14.1639 0.49646ZM23.2134 17.4086C24.0371 17.4086 24.7073 16.7384 24.7073 15.9147C24.7073 15.091 24.0371 14.4208 23.2134 14.4208C22.3897 14.4208 21.7195 15.091 21.7195 15.9147C21.7195 16.7384 22.3897 17.4086 23.2134 17.4086ZM19.2297 23.8859C20.6637 23.8859 21.8281 22.7214 21.8281 21.2875H16.6351C16.6313 22.7214 17.7957 23.8859 19.2297 23.8859ZM15.246 17.4086C16.0697 17.4086 16.7399 16.7384 16.7399 15.9147C16.7399 15.091 16.0697 14.4208 15.246 14.4208C14.4223 14.4208 13.7521 15.091 13.7521 15.9147C13.7521 16.7384 14.4223 17.4086 15.246 17.4086Z" fill="black"/>
<path d="M8.36026 38.5852C8.58116 38.5814 8.79832 38.66 8.95932 38.8173C11.1421 40.8915 15.8073 43.0144 20.8768 42.7748C28.5485 42.4191 32.2439 37.5892 33.7677 34.74C33.9175 34.4592 34.2095 34.2982 34.5091 34.2982C34.6439 34.2982 34.7786 34.3281 34.9022 34.3955C35.3103 34.6127 35.4638 35.1219 35.2467 35.53C33.8875 38.076 29.7728 44.0366 20.9554 44.4484C15.4029 44.703 10.1762 42.2806 7.80614 40.0304C7.64514 39.8769 7.55154 39.6672 7.54405 39.4426C7.53656 39.2179 7.61893 39.0045 7.77618 38.8435C7.93344 38.6825 8.13936 38.5926 8.36026 38.5852Z" fill="#0BFF4F"/>
</g>
<defs>
<clipPath id="clip0">
<rect width="69" height="59.5687" fill="white" transform="matrix(-1 0 0 1 69 0.49646)"/>
</clipPath>
</defs>
</svg>
