<svg width="41" height="60" viewBox="0 0 41 60" fill="none" xmlns="http://www.w3.org/2000/svg">
<path d="M41 38.9679C41 35.325 38.151 32.357 34.6101 32.2326V14.2665C34.6101 6.41861 28.3126 0 20.6129 0C12.9131 0 6.61565 6.41861 6.61565 14.2665V32.225C2.96742 32.225 0 35.2495 0 38.9679C0 42.6864 2.96742 45.7109 6.61565 45.7146V45.7335C6.61565 53.6116 12.8835 60 20.6129 60C28.3422 60 34.6101 53.6116 34.6101 45.7335V45.7033C38.1547 45.5789 41 42.6109 41 38.9679ZM2.59002 38.9679C2.59002 36.7052 4.39563 34.8649 6.61565 34.8611V43.071C4.39563 43.0748 2.59002 41.2307 2.59002 38.9679ZM16.676 17.0346C15.862 17.0346 15.1997 16.3595 15.1997 15.5299C15.1997 14.7002 15.862 14.0251 16.676 14.0251C17.49 14.0251 18.1523 14.7002 18.1523 15.5299C18.1523 16.3595 17.49 17.0346 16.676 17.0346ZM20.6129 23.5588C19.1957 23.5588 18.045 22.3859 18.045 20.9415H23.177C23.1807 22.3859 22.03 23.5588 20.6129 23.5588ZM24.5497 17.0346C23.7357 17.0346 23.0734 16.3595 23.0734 15.5299C23.0734 14.7002 23.7357 14.0251 24.5497 14.0251C25.3637 14.0251 26.026 14.7002 26.026 15.5299C26.026 16.3595 25.3637 17.0346 24.5497 17.0346ZM34.6101 43.0635V34.8762C36.7265 34.9969 38.41 36.7844 38.41 38.9717C38.41 41.159 36.7265 42.9428 34.6101 43.0635Z" fill="black"/>
</svg>
