<svg width="49" height="69" viewBox="0 0 49 69" fill="none" xmlns="http://www.w3.org/2000/svg">
<g clip-path="url(#clip0)">
<path d="M37.3063 69H6.34676C2.84595 69 0 66.1475 0 62.6387V21.8786C0 9.81232 9.78991 0 21.8286 0C33.8672 0 43.6571 9.81232 43.6571 21.8786V62.6387C43.653 66.1475 40.8071 69 37.3063 69ZM21.8286 2.47682C11.1532 2.47682 2.47116 11.1787 2.47116 21.8786V62.6387C2.47116 64.7812 4.20921 66.5232 6.34676 66.5232H37.3063C39.4438 66.5232 41.1819 64.7812 41.1819 62.6387V21.8786C41.1819 11.1787 32.4999 2.47682 21.8286 2.47682Z" fill="black"/>
<path d="M34.0116 15.9796C28.3691 10.254 19.0776 10.2003 13.3651 15.8557C7.65258 21.5111 7.59904 30.824 13.2415 36.5496L35.8732 59.5055C37.4959 61.1526 39.4111 62.3291 41.4539 63.0391V23.5339L34.0116 15.9796ZM22.7019 31.179C22.0965 31.7776 21.1204 31.7734 20.5232 31.1666C19.926 30.5598 19.9301 29.5814 20.5356 28.9829C21.141 28.3843 22.1171 28.3884 22.7143 28.9953C23.3115 29.6021 23.3033 30.5804 22.7019 31.179ZM26.3757 23.1954C26.9812 22.5968 27.9573 22.6009 28.5545 23.2078C29.1517 23.8146 29.1475 24.7929 28.5421 25.3915C27.9367 25.9901 26.9606 25.9859 26.3634 25.3791C25.7662 24.7723 25.7703 23.7939 26.3757 23.1954ZM30.3131 33.0449C29.2629 34.0851 27.566 34.0769 26.5281 33.0242L30.3378 29.2512C31.3757 30.3038 31.3633 32.0005 30.3131 33.0449Z" fill="black"/>
<path d="M38.8054 63.0391C37.1786 63.0391 35.5641 62.6345 34.0896 61.8419C31.7379 60.5746 30.0163 58.4652 29.2503 55.9058C28.4801 53.3423 28.7519 50.6343 30.0163 48.2772C30.4447 47.4846 31.429 47.1833 32.2239 47.6126C33.0147 48.0378 33.3153 49.0285 32.887 49.8252C32.0344 51.4145 31.8532 53.2391 32.3722 54.9688C32.8911 56.6984 34.0484 58.1185 35.6341 58.9688C37.2198 59.8233 39.0443 60.005 40.7659 59.4848C42.4875 58.9647 43.9084 57.8047 44.7609 56.2154C45.1851 55.4228 46.1736 55.1256 46.9685 55.5508C47.7593 55.976 48.0599 56.9667 47.6316 57.7634C46.3672 60.1205 44.2667 61.8461 41.709 62.6139C40.7453 62.8946 39.7733 63.0391 38.8054 63.0391Z" fill="white"/>
<path d="M38.8053 63.8647C37.0384 63.8647 35.2756 63.4148 33.6982 62.5685C31.1529 61.198 29.2913 58.9152 28.4593 56.1412C27.6274 53.3672 27.9198 50.4363 29.2872 47.8851C29.9256 46.6921 31.4165 46.2422 32.6068 46.882C33.1834 47.1916 33.6076 47.7118 33.7929 48.3392C33.9824 48.9667 33.9165 49.6313 33.6035 50.2133C32.8539 51.6086 32.6933 53.2103 33.1504 54.7253C33.6076 56.2403 34.6249 57.4869 36.017 58.2382C37.4091 58.9895 39.0071 59.1505 40.5186 58.6923C42.0301 58.2341 43.2781 57.2145 44.0235 55.8192C44.6619 54.6262 46.1528 54.1762 47.3431 54.8161C47.9197 55.1257 48.3439 55.6458 48.5334 56.2733C48.7228 56.9008 48.6569 57.5654 48.3439 58.1474C46.9766 60.6985 44.699 62.5644 41.9313 63.3983C40.914 63.7079 39.8596 63.8647 38.8053 63.8647ZM31.4494 48.2401C31.1611 48.2401 30.8852 48.3929 30.7369 48.6653C29.5755 50.8284 29.3284 53.3135 30.0326 55.6665C30.7369 58.0194 32.3143 59.9514 34.4766 61.1155C36.61 62.2631 39.1389 62.519 41.4618 61.8172C43.8094 61.1072 45.7369 59.5262 46.8983 57.3631C47.0013 57.1732 47.0219 56.9544 46.9601 56.748C46.8983 56.5416 46.7583 56.3724 46.5688 56.2692C46.1775 56.0586 45.6874 56.2072 45.4774 56.5994C44.5219 58.3827 42.9321 59.6872 40.9964 60.2692C39.0606 60.8513 37.0178 60.649 35.2386 59.6872C33.4593 58.7295 32.1578 57.136 31.5771 55.1959C30.9964 53.2598 31.1982 51.2082 32.1578 49.4249C32.2608 49.235 32.2814 49.0162 32.2196 48.8098C32.1578 48.6034 32.0178 48.4342 31.8284 48.331C31.7089 48.2732 31.5771 48.2401 31.4494 48.2401Z" fill="black"/>
</g>
<defs>
<clipPath id="clip0">
<rect width="48.6394" height="69" fill="white"/>
</clipPath>
</defs>
</svg>
