<?xml version="1.0" encoding="utf-8"?>
<!-- Generator: Adobe Illustrator 24.3.0, SVG Export Plug-In . SVG Version: 6.00 Build 0)  -->
<svg version="1.1" id="Layer_1" xmlns="http://www.w3.org/2000/svg" xmlns:xlink="http://www.w3.org/1999/xlink" x="0px" y="0px"
	 viewBox="0 0 471.2 548.3" style="enable-background:new 0 0 471.2 548.3;" xml:space="preserve">
<style type="text/css">
	.st0{clip-path:url(#SVGID_2_);fill:#0BFF4F;}
</style>
<g>
	<defs>
		<rect id="SVGID_1_" width="471.2" height="548.3"/>
	</defs>
	<clipPath id="SVGID_2_">
		<use xlink:href="#SVGID_1_"  style="overflow:visible;"/>
	</clipPath>
	<path class="st0" d="M209.8,130.2c30.3,68.3,80.2,74.3,110.7,48.5c76.4-64.9,160.4-21.4,181.7,39.1c33.4,94.3-89.2,331.2-139,330.5
		c-49.8-0.7-35.4-63.3-5.5-146.5c34.4-95.7-11.7-108.4-90.3-74.5c-47.8,20.6-101.8,22.1-169.8-16.1c-112.9-63.3-54.9-131.8,3.8-95.8
		c36.5,22.4,47.4,63.3,87.4,59.4c44.3-4.4,30.5-60.5-36.7-71.8c-72.3-12.1-121-53.7-140-88.3C-23.8,48.9,25.7-2.1,84.5,0.1
		C143.3,2.2,171.9,44.9,209.8,130.2z"/>
</g>
</svg>
