<svg width="147" height="38" viewBox="0 0 147 38" fill="none" xmlns="http://www.w3.org/2000/svg">
<path d="M4.99698 38H0.873258L7.24562 24.4161L0 9.70865H4.20619L9.24683 20.2496L14.0789 9.70865H18.2438L4.99698 38Z" fill="white"/>
<path d="M38.9034 18.8738C38.9034 24.7898 34.7797 28.7912 28.7809 28.7912C23.0319 28.7912 18.9106 24.6248 18.9106 18.8738C18.9106 13.499 23.2017 9.33255 28.7809 9.33255C34.6536 9.33255 38.9034 13.334 38.9034 18.8738ZM22.6996 18.8738C22.6996 22.8315 25.1569 25.4571 28.7397 25.4571C32.6548 25.4571 35.112 22.9577 35.112 18.9151C35.112 15.2898 32.4462 12.6642 28.7397 12.6642C25.2418 12.6666 22.6996 15.2922 22.6996 18.8738Z" fill="white"/>
<path d="M54.8961 28.415V26.0394C53.3557 27.7065 51.1896 28.7887 49.3557 28.7887C45.5643 28.7887 42.9009 26.0807 42.9009 21.3295V9.70865H46.6074V21.5843C46.6074 24.2098 47.8979 25.7094 50.44 25.7094C52.1065 25.7094 53.688 24.7922 54.8961 23.0839V9.70865H58.6026V28.4175H54.8961V28.415Z" fill="white"/>
<path d="M68.1845 9.70872H74.0984V13.0428H68.1845V22.6253C68.1845 24.8335 69.7661 25.4596 70.8504 25.4596C72.1821 25.4596 73.5575 25.0009 75.0566 24.0837V27.5415C73.7661 28.2501 71.7673 28.7912 70.5593 28.7912C66.518 28.7912 64.478 26.2919 64.478 22.9165V13.0428H61.23V12.6255L68.1869 5.8335V9.70872H68.1845Z" fill="#0BFF4F"/>
<path d="M81.3461 12.1668H81.4286C82.8452 10.376 84.9265 9.33256 87.0102 9.33256C90.6754 9.33256 93.3825 11.8319 93.3825 16.9568V28.4151H89.676V16.8331C89.676 14.0838 88.2594 12.2905 86.0108 12.2905C84.3856 12.2905 83.0951 13.0404 81.3461 14.9986V28.4151H77.6396V0H81.3461V12.1668Z" fill="#0BFF4F"/>
<path d="M100.505 6.25082C99.2968 6.25082 98.2974 5.25108 98.2974 4.04265C98.2974 2.83422 99.2968 1.83447 100.505 1.83447C101.713 1.83447 102.712 2.83422 102.712 4.04265C102.712 5.25108 101.713 6.25082 100.505 6.25082ZM102.339 28.4151H98.6321V9.70625H102.339V28.4151Z" fill="white"/>
<path d="M111.294 12.1668H111.377C112.793 10.376 114.875 9.33255 116.958 9.33255C120.498 9.33255 123.331 11.7494 123.331 16.8743V28.4151H119.624V16.8331C119.624 14.0838 118.208 12.2905 115.959 12.2905C114.334 12.2905 113.043 13.0403 111.294 14.9986V28.4151H107.588V9.70624H111.294V12.1668Z" fill="white"/>
<path d="M132.16 28.4151H128.454V0H132.16V28.4151ZM137.033 18.8738L146.697 28.4151H141.7L132.33 18.8738L140.619 9.70626H145.033L137.033 18.8738Z" fill="white"/>
</svg>
