<svg width="102" height="11" viewBox="0 0 102 11" fill="none" xmlns="http://www.w3.org/2000/svg">
<g clip-path="url(#clip0)">
<path d="M96.6285 11C93.2183 11 90.6949 8.90342 88.2538 6.87265C86.0367 5.02991 83.9476 3.2906 81.4197 3.2906C79.0151 3.2906 77.15 4.84658 74.9924 6.64231L74.7135 6.87265C72.5056 8.71068 69.7536 11 66.2109 11C62.8006 11 60.2773 8.90342 57.8362 6.87265C55.6191 5.02991 53.5254 3.2906 51.0021 3.2906C48.4741 3.2906 46.3804 5.02991 44.1679 6.87265C41.7268 8.90342 39.208 11 35.7933 11C32.383 11 29.8597 8.90342 27.4232 6.87265C25.2015 5.02991 23.1078 3.2906 20.5799 3.2906C18.0519 3.2906 15.9583 5.02991 13.7457 6.87265C11.3047 8.90342 8.78128 11 5.37107 11C3.84882 11 2.36314 10.5722 0.822603 9.69786C0.0500484 9.25598 -0.228802 8.2547 0.196331 7.46026C0.626036 6.66581 1.59973 6.37906 2.37228 6.81624C3.42369 7.41795 4.40652 7.7094 5.37107 7.7094C7.65216 7.7094 9.54012 6.13462 11.7298 4.31538C14.1663 2.29402 16.9228 0 20.5799 0C24.2369 0 26.9934 2.29402 29.4254 4.31538C31.6151 6.13932 33.5076 7.7094 35.7887 7.7094C38.0698 7.7094 39.9577 6.13462 42.1474 4.31538C44.5839 2.29402 47.3404 0 51.0021 0C54.6591 0 57.4156 2.29402 59.8476 4.31538C62.0372 6.13932 63.9298 7.7094 66.2109 7.7094C68.4462 7.7094 70.389 6.23803 72.7021 4.31538L72.9764 4.08504C75.2758 2.17179 77.8815 0 81.4197 0C85.0767 0 87.8332 2.29402 90.2652 4.31538C92.4594 6.13932 94.3474 7.7141 96.6285 7.7141C97.593 7.7141 98.5713 7.42265 99.6273 6.82094C100.4 6.37906 101.374 6.66581 101.803 7.46496C102.233 8.2594 101.954 9.26068 101.177 9.70256C99.6364 10.5769 98.1507 11 96.6285 11Z" fill="#0BFF4F"/>
</g>
<defs>
<clipPath id="clip0">
<rect width="102" height="11" fill="white"/>
</clipPath>
</defs>
</svg>
